<?xml version="1.0" standalone="no"?><!DOCTYPE svg PUBLIC "-//W3C//DTD SVG 1.1//EN" "http://www.w3.org/Graphics/SVG/1.1/DTD/svg11.dtd"><svg t="1489218947583" class="icon" style="" viewBox="0 0 1024 1024" version="1.1" xmlns="http://www.w3.org/2000/svg" p-id="3305" xmlns:xlink="http://www.w3.org/1999/xlink" width="200" height="200"><defs><style type="text/css"></style></defs><path d="M556.1 225.6 794 463.5 112.2 463.5c-26.6 0-48.2 21.6-48.2 48.2 0 26.6 21.6 48.2 48.2 48.2L794 559.9 556.1 797.8c-18.8 18.8-18.8 49.4 0 68.2 18.8 18.8 49.4 18.8 68.2 0l306.1-306.1 4.1-4.1 15-16.7c5.6-7.8 9.1-17.1 9.1-27.4 0-10.3-3.5-19.6-9.1-27.4l-15-16.7-4.1-4.1L624.3 157.3c-18.8-18.8-49.4-18.8-68.2 0C537.3 176.2 537.3 206.7 556.1 225.6z" p-id="3306" fill="#ffffff"></path></svg>